<?xml version="1.0" encoding="utf-8"?>
<!-- Generator: Adobe Illustrator 17.0.0, SVG Export Plug-In . SVG Version: 6.00 Build 0)  -->
<!DOCTYPE svg PUBLIC "-//W3C//DTD SVG 1.1//EN" "http://www.w3.org/Graphics/SVG/1.1/DTD/svg11.dtd">
<svg version="1.1" id="Layer_1" xmlns="http://www.w3.org/2000/svg" xmlns:xlink="http://www.w3.org/1999/xlink" x="0px" y="0px"
	 width="146px" height="70px" viewBox="0 0 146 70" enable-background="new 0 0 146 70" xml:space="preserve">
<path d="M139.849,46.789c-17.199,4.63-34.16,9.89-50.134,18.124c0.297-0.894,0.784-1.475,1.291-2.039
	c9.916-11.032,20.164-21.781,29.147-33.613c1.323-1.742,4.156-3.777,2.289-5.943c-2.066-2.397-4.567,0.199-6.64,1.303
	c-7.042,3.749-12.966,9.067-19.72,14.839c1.521-4.399,5.776-5.895,6.556-10.888C92.175,35.633,85.545,45.503,76.2,52.236
	c-0.944-1.222-0.337-1.734-0.024-2.243c3.41-5.551,7.148-10.841,12.066-15.209c1.509-1.34,2.325-3.067,0.97-4.833
	c-1.269-1.654-3.004-0.851-4.55-0.156c-3.848,1.73-7.126,4.283-10.285,7.028c-2.529,2.198-2.568,2.152-5.955,1.495
	c6.323-9.111,13.595-17.308,21.564-24.921c1.336-1.277,2.916-1.442,4.568-1.682c13.045-1.893,26.094-3.759,39.125-5.743
	c4.838-0.737,5.304-2.143,2.296-5.972c-0.668,0-1.337,0-2.005,0c-13.429,2.969-26.544,7.75-40.629,6.961
	c-0.735-0.041-1.732,0.282-2.217,0.799c-2.405,2.565-5.724,2.552-8.764,3.194c-8.45,1.785-16.934,3.411-25.405,5.101
	c0.04,0.213,0.081,0.425,0.122,0.638c5.3-0.592,10.6-1.184,17.225-1.925C60.369,28.584,49.247,43.185,34.434,53.99
	c2.063-9.271,11.565-12.53,16.312-21.096C36.374,35.627,27.432,45.05,17.471,52.766l0.119,0.147
	c-0.06-0.074-0.119-0.147-0.119-0.147c-2.733,0.414-1.193-0.974-0.7-1.758c4.164-6.622,8.328-13.245,12.558-19.826
	c4.01-6.24,8.099-12.429,12.153-18.64c-0.338-0.327-0.676-0.653-1.015-0.98c-9.279,5.634-15.776,14.469-23.813,21.656
	c3.348-6.043,6.696-12.086,10.045-18.13c-0.607-0.348-1.215-0.697-1.822-1.045C14.218,24.859,6.629,37.785,0,51.372
	c5.008-7.08,9.367-14.614,15.349-21.064c-3.334,6.735-7.796,12.948-9.225,20.583c7.044-11.173,16.549-19.908,26.187-28.559
	c-6.919,11.164-15.827,21.075-20.779,34.474c3.252-0.818,4.958-1.892,6.178-3.745c2.46,0.045,5.164-5.783,7.484,0.407
	c0.375,1,2.085-0.255,3.171-0.539c1.722-0.452,2.706-2.451,4.739-2.336c-0.214,1.637-1.847,3.312,0.16,4.613
	c1.545,1.001,2.905-0.205,4.062-1.047c3.066-2.232,6.026-4.609,10.039-7.71c-1.94,4.157-4.191,6.709-4.049,10.418
	c4.191-4.541,7.288-10.393,14.448-11.319c-1.166,2.232-2.255,4.274-3.299,6.337c-0.371,0.734-0.792,1.665,0.327,2.036
	c0.461,0.153,1.351-0.201,1.697-0.614c2.454-2.939,4.746-6.014,7.239-8.918c1.402-1.634,2.503-5.33,4.998-3.616
	c2.377,1.633-1.631,3.07-1.997,4.989c-0.237,1.242-1.454,2.409-0.243,3.662c1.164,1.205,2.457,0.618,3.652-0.054
	c1.761-0.991,3.498-2.024,6.291-3.646c-1.224,2.058-1.897,2.981-2.348,4.001c-0.562,1.269-2.157,2.609-0.663,3.999
	c1.369,1.273,2.861,0.17,4.077-0.647c2.37-1.593,4.65-3.318,8.001-5.735c-2.198,4.826-6.294,7.079-6.122,11.837
	c11.442-12.005,23.684-22.901,38.243-30.94c-0.922,1.855-2.158,3.357-3.491,4.768c-8.353,8.844-16.818,17.585-25.045,26.544
	c-2.749,2.994-5.998,5.885-6.252,10.449c0.668,0,1.337,0,2.005,0c16.639-9.396,34.976-13.771,53.368-18.009
	c2.717-0.626,5.683-0.742,7.796-2.991c0-0.667,0-1.333,0-2C143.987,45.707,142.018,46.205,139.849,46.789z M25.872,51.998
	c2.535-7.43,9.397-9.288,15.491-12.165C36.91,44.758,32.262,49.432,25.872,51.998z M53.552,46.291
	c-0.342-0.31-0.683-0.62-1.025-0.931c4.401-6.149,8.546-12.478,13.949-17.893c2.939-2.945,6.163-5.805,8.306-9.287
	c2.354-3.825,5.47-4.834,10.545-4.919C74.355,24.666,63.954,35.478,53.552,46.291z M68.081,48.715
	c2.979-7.734,8.438-10.555,15.523-12.639C78.783,40.922,74.424,45.046,68.081,48.715z"/>
</svg>
