<?xml version="1.0" encoding="utf-8"?>
<!-- Generator: Adobe Illustrator 17.1.0, SVG Export Plug-In . SVG Version: 6.00 Build 0)  -->
<!DOCTYPE svg PUBLIC "-//W3C//DTD SVG 1.1//EN" "http://www.w3.org/Graphics/SVG/1.1/DTD/svg11.dtd">
<svg version="1.1" id="Layer_1" xmlns="http://www.w3.org/2000/svg" xmlns:xlink="http://www.w3.org/1999/xlink" x="0px" y="0px"
	 viewBox="0 0 395 60" enable-background="new 0 0 395 60" xml:space="preserve">
<symbol  id="One_Month_HTML" viewBox="-158.3 -24 316.7 48">
	<polygon fill="#FFFFFF" points="60.7,-24 -158.3,-24 -158.3,24 60.7,24 	"/>
	<polygon fill="#52ABA3" points="158.3,-24 60.7,-24 60.7,24 158.3,24 	"/>
	<g>
		<path fill="#FFFFFF" d="M76.4,1.8h9.5v7.9h3.9V-9.9h-3.9v8.1h-9.5v-8.1h-3.9V9.8h3.9V1.8z"/>
		<path fill="#FFFFFF" d="M108.4,6.1h-6.1v-16h-3.9v16h-6.1v3.7h16.1V6.1z"/>
		<path fill="#FFFFFF" d="M132.6-9.9h-3.9V4.9l-4.9-13h-4.1l-4.9,12.8V-9.9h-3.9V9.8h5.7l5.1-13.3l5.1,13.3h5.7V-9.9z"/>
		<path fill="#FFFFFF" d="M151.5-9.9h-14.3V9.8h3.9v-16h10.4V-9.9z"/>
	</g>
	<g>
		<path fill="#4D4D4D" d="M-74.2-0.1c0-5.9-4.3-10.2-10.4-10.2C-90.7-10.3-95-5.9-95-0.1s4.3,10.2,10.4,10.2
			C-78.5,10.1-74.2,5.8-74.2-0.1z M-89.5-0.1c0-3,2-5.1,4.9-5.1s4.9,2.1,4.9,5.1s-2,5.1-4.9,5.1S-89.5,2.9-89.5-0.1z"/>
		<path fill="#4D4D4D" d="M-59.2-0.8v-9.1h-5v7.5c0,1.4-0.7,2.1-1.8,2.1c-1,0-1.7-0.7-1.7-2.2v-7.5h-5V4h4.8V2.6
			c0.8,1.2,2,1.8,3.8,1.8C-61.3,4.4-59.2,2.4-59.2-0.8z"/>
		<path fill="#4D4D4D" d="M-43.7-2.9c0-0.5,0-1.2-0.1-1.5h-9.1c0.3-1.1,1.2-1.7,2.5-1.7c0.9,0,1.9,0.4,2.6,1.1l3.4-2.9
			c-1.3-1.5-3.5-2.4-6.3-2.4c-4.5,0-7.4,2.9-7.4,7.2c0,4.4,3,7.5,7.2,7.5C-46.6,4.4-43.7,1.4-43.7-2.9z M-52.9-1.4h4.2
			c-0.4,1.1-1.1,1.6-2.1,1.6C-51.8,0.2-52.5-0.3-52.9-1.4z"/>
		<path fill="#4D4D4D" d="M-14.3-9.9h-5.3V2.4l-3.6-12.3h-4.9l-3.6,12.3V-9.9H-37V9.8h7.4l4-11.8l3.9,11.8h7.4V-9.9z"/>
		<path fill="#4D4D4D" d="M2.4-2.9c0-4.2-3.2-7.3-7.6-7.3s-7.6,3.1-7.6,7.3s3.2,7.3,7.6,7.3S2.4,1.3,2.4-2.9z M-7.7-2.9
			c0-1.6,1-2.7,2.5-2.7s2.5,1.1,2.5,2.7s-1,2.7-2.5,2.7S-7.7-1.4-7.7-2.9z"/>
		<path fill="#4D4D4D" d="M17.1-0.8v-9.1h-5v7.5c0,1.4-0.7,2.1-1.8,2.1c-1,0-1.7-0.7-1.7-2.2v-7.5h-5V4h4.8V2.6
			c0.8,1.2,2,1.8,3.8,1.8C15,4.4,17.1,2.4,17.1-0.8z"/>
		<path fill="#4D4D4D" d="M36.4,2.9c0.8,1,2,1.5,3.5,1.5c2.9,0,5-2,5-5.2v-9.1h-5v7.5c0,1.4-0.7,2.1-1.8,2.1c-1,0-1.7-0.6-1.7-2.2
			v-7.5h-5v20.3h5V2.9z"/>
		<path fill="#4D4D4D" d="M18.9,4c1,0,1.7,0.7,1.7,1.6h0.2V3.7h-1.9V4z"/>
		<g>
			<path fill="#4D4E4E" d="M25.7-3.3v2.9h4.2V4h-4.2v4h-5V4h-2.5v-4.4h2.5v-3.7c0-3.4,1.6-5.8,5.6-5.8c1.5,0,2.6,0.3,3.6,0.7v4h-2.3
				C26.4-5.3,25.7-4.8,25.7-3.3z"/>
		</g>
		<polygon fill="#4D4E4E" points="29.8,-8 26.2,-8 26.2,-9.9 29.8,-9.9 		"/>
	</g>
	<g>
		<polygon fill="#47ADA4" points="-131.9,15.1 -145.7,5.6 -145.7,0.2 -145.7,-5.1 -131.9,-14.6 -131.9,-3.9 -137.9,0.2 -131.9,4.4 
					"/>
		<polygon fill="#129C8E" points="-145.7,0.2 -145.7,-5.1 -131.9,-14.6 -131.9,-3.9 -137.9,0.2 		"/>
		<polygon fill="#129C8E" points="-125.4,15.1 -125.4,4.4 -119.4,0.2 -125.4,-3.9 -125.4,-14.6 -111.7,-5.1 -111.7,0.2 -111.7,5.6 
					"/>
		<polygon fill="#007D70" points="-111.7,0.2 -111.7,-5.1 -125.4,-14.6 -125.4,-3.9 -119.4,0.2 		"/>
	</g>
</symbol>
<use xlink:href="#One_Month_HTML"  width="316.7" height="48" id="XMLID_1_" x="-158.3" y="-24" transform="matrix(1.2504 0 0 -1.25 198 30)" overflow="visible"/>
</svg>
