<?xml version="1.0" encoding="utf-8"?>
<!-- Generator: Adobe Illustrator 17.1.0, SVG Export Plug-In . SVG Version: 6.00 Build 0)  -->
<!DOCTYPE svg PUBLIC "-//W3C//DTD SVG 1.1//EN" "http://www.w3.org/Graphics/SVG/1.1/DTD/svg11.dtd">
<svg version="1.1" id="Layer_1" xmlns="http://www.w3.org/2000/svg" xmlns:xlink="http://www.w3.org/1999/xlink" x="0px" y="0px"
	 viewBox="0 0 380 60" enable-background="new 0 0 380 60" xml:space="preserve">
<symbol  id="One_Month_Rails_2" viewBox="-152.2 -24 304.4 48">
	<polygon fill="#ED6746" points="152.2,-24 66.8,-24 66.8,24 152.2,24 	"/>
	<polygon fill="#FFFFFF" points="66.8,-24 -152.2,-24 -152.2,24 66.8,24 	"/>
	<g enable-background="new    ">
		<path fill="#FFFFFF" d="M87,9.8c4.7,0,7.2-2.2,7.2-6c0-3.2-2.2-5.4-6-5.8l6.1-7.9h-4.8l-5.7,7.8h-1.2v-7.8h-3.9V9.8H87z M82.6,6.2
			V1.3h4.3c2.1,0,3.2,0.8,3.2,2.4c0,1.6-1.2,2.4-3.2,2.4H82.6z"/>
		<path fill="#FFFFFF" d="M110.3-9.9h-3.6v1.5c-0.9-1.1-2.2-1.9-4.1-1.9c-3.8,0-6.6,3.1-6.6,7.2c0,4.1,2.8,7.2,6.6,7.2
			c1.9,0,3.2-0.8,4.1-1.9v1.5h3.6V-9.9z M99.8-3.1c0-2.1,1.4-3.8,3.5-3.8c2.1,0,3.5,1.6,3.5,3.8c0,2.2-1.4,3.8-3.5,3.8
			C101.2,0.7,99.8-1,99.8-3.1z"/>
		<path fill="#FFFFFF" d="M118.3,8.2c0-1.3-1-2.3-2.3-2.3c-1.3,0-2.3,1-2.3,2.3c0,1.3,1,2.4,2.3,2.4C117.3,10.5,118.3,9.5,118.3,8.2
			z M117.8-9.9h-3.7V3.7h3.7V-9.9z"/>
		<path fill="#FFFFFF" d="M125.3-9.9h-3.7v20.2h3.7V-9.9z"/>
		<path fill="#FFFFFF" d="M139-0.1c-1.1,0.5-2.8,1.1-4.3,1.1c-1.4,0-2.1-0.5-2.1-1.2c0-0.8,1-1,2.2-1.2l1.2-0.2
			c3-0.4,4.6-1.8,4.6-4.1c0-2.8-2.3-4.6-6.3-4.6c-1.9,0-4.3,0.4-6.1,1.6l1.4,2.8c1.2-0.8,2.6-1.3,4.6-1.3c1.7,0,2.5,0.5,2.5,1.3
			c0,0.7-0.7,1-2.3,1.2l-1.1,0.2c-3.1,0.4-4.7,1.8-4.7,4.1c0,2.8,2.2,4.5,5.7,4.5c2.2,0,3.9-0.4,5.7-1.3L139-0.1z"/>
	</g>
	<g>
		<path fill="#4D4E4E" d="M-68.1-0.1c0-5.9-4.3-10.2-10.4-10.2S-88.9-6-88.9-0.1s4.3,10.2,10.4,10.2C-72.4,10.1-68.1,5.8-68.1-0.1z
			 M-83.3-0.1c0-3,2-5.1,4.9-5.1s4.9,2.1,4.9,5.1s-2,5.1-4.9,5.1S-83.3,2.9-83.3-0.1z"/>
		<path fill="#4D4E4E" d="M-53-0.8v-9.1h-5v7.5c0,1.4-0.7,2.1-1.8,2.1c-1,0-1.7-0.7-1.7-2.2V-10h-5V4h4.8V2.6c0.8,1.2,2,1.8,3.8,1.8
			C-55.1,4.4-53,2.4-53-0.8z"/>
		<path fill="#4D4E4E" d="M-37.5-2.9c0-0.5,0-1.2-0.1-1.5h-9.1c0.3-1.1,1.2-1.7,2.5-1.7c0.9,0,1.9,0.4,2.6,1.1l3.4-2.9
			c-1.3-1.5-3.5-2.4-6.3-2.4c-4.5,0-7.4,2.9-7.4,7.2c0,4.4,3,7.5,7.2,7.5C-40.4,4.4-37.5,1.4-37.5-2.9z M-46.7-1.4h4.2
			c-0.4,1.1-1.1,1.6-2.1,1.6C-45.7,0.2-46.4-0.3-46.7-1.4z"/>
		<path fill="#4D4E4E" d="M-8.2-9.9h-5.3V2.4l-3.6-12.3H-22l-3.6,12.3V-9.9h-5.3V9.8h7.4l4-11.8l3.9,11.8h7.4
			C-8.2,9.8-8.2-9.9-8.2-9.9z"/>
		<path fill="#4D4E4E" d="M8.6-2.9c0-4.2-3.2-7.3-7.6-7.3s-7.6,3.1-7.6,7.3S-3.4,4.4,1,4.4S8.6,1.3,8.6-2.9z M-1.5-2.9
			c0-1.6,1-2.7,2.5-2.7s2.5,1.1,2.5,2.7S2.4-0.2,1-0.2S-1.5-1.4-1.5-2.9z"/>
		<path fill="#4D4E4E" d="M23.3-0.8v-9.1h-5v7.5c0,1.4-0.7,2.1-1.8,2.1c-1,0-1.7-0.7-1.7-2.2V-10h-5V4h4.8V2.6
			c0.8,1.2,2,1.8,3.8,1.8C21.2,4.4,23.3,2.4,23.3-0.8z"/>
		<path fill="#4D4E4E" d="M42.6,2.9c0.8,1,2,1.5,3.5,1.5c2.9,0,5-2,5-5.2v-9.1h-5v7.5c0,1.4-0.7,2.1-1.8,2.1c-1,0-1.7-0.6-1.7-2.2
			V-10h-5v20.3h5V2.9z"/>
		<path fill="#4D4E4E" d="M25.1,4c1,0,1.7,0.7,1.7,1.6H27V3.7h-1.9V4z"/>
		<g>
			<path fill="#4D4E4E" d="M31.8-3.3v2.9H36V4h-4.2v4h-5V4h-2.5v-4.4h2.5v-3.7c0-3.4,1.6-5.9,5.6-5.9c1.5,0,2.6,0.3,3.6,0.7v4h-2.3
				C32.6-5.3,31.8-4.8,31.8-3.3z"/>
		</g>
		<polygon fill="#4D4E4E" points="36,-8 32.4,-8 32.4,-9.9 36,-9.9 		"/>
	</g>
	<g>
		<polygon fill="#E06A4C" points="-139.4,2.3 -103,2.3 -121.2,-13.4 		"/>
		<polygon fill="#ED6746" points="-103,2.3 -139.4,2.3 -133.1,12.7 -109.3,12.7 		"/>
		<polygon fill="#D35736" points="-111,2.3 -131.4,2.3 -133.1,12.7 -109.3,12.7 		"/>
		<polygon fill="#D35736" points="-139.4,2.3 -103,2.3 -121.2,-13.4 		"/>
		<polygon fill="#ED6746" points="-111.2,2.3 -131.3,2.3 -121.2,12.7 		"/>
		<polygon fill="#B74326" points="-131.4,2.3 -111,2.3 -121.2,-13.4 		"/>
	</g>
</symbol>
<use xlink:href="#One_Month_Rails_2"  width="304.4" height="48" id="XMLID_1_" x="-152.2" y="-24" transform="matrix(1.25 0 0 -1.25 190 30)" overflow="visible"/>
</svg>
